HIERARCHY
ROOT root
{
	OFFSET 0.000000 0.000000 0.000000
	CHANNELS 6 Xposition Yposition Zposition Zrotation Yrotation Xrotation
	JOINT lhip
	{
		OFFSET 0.058581 -0.082280 -0.017664
		CHANNELS 3 Zrotation Yrotation Xrotation
		JOINT lknee
		{
			OFFSET 0.043451 -0.386469 0.008037
			CHANNELS 3 Zrotation Yrotation Xrotation
			JOINT lankle
			{
				OFFSET -0.014790 -0.426874 -0.037428
				CHANNELS 3 Zrotation Yrotation Xrotation
				JOINT ltoe
				{
					OFFSET 0.041054 -0.060286 0.122042
					CHANNELS 3 Zrotation Yrotation Xrotation
					End Site
					{
						OFFSET 0.000000 0.000000 0.000000
					}
				}
			}
		}
	}
	JOINT rhip
	{
		OFFSET -0.060310 -0.090513 -0.013543
		CHANNELS 3 Zrotation Yrotation Xrotation
		JOINT rknee
		{
			OFFSET -0.043257 -0.383688 -0.004843
			CHANNELS 3 Zrotation Yrotation Xrotation
			JOINT rankle
			{
				OFFSET 0.019056 -0.420046 -0.034562
				CHANNELS 3 Zrotation Yrotation Xrotation
				JOINT rtoe
				{
					OFFSET -0.034840 -0.062106 0.130323
					CHANNELS 3 Zrotation Yrotation Xrotation
					End Site
					{
						OFFSET 0.000000 0.000000 0.000000
					}
				}
			}
		}
	}
	JOINT lowerback
	{
		OFFSET 0.004439 0.124404 -0.038385
		CHANNELS 3 Zrotation Yrotation Xrotation
		JOINT upperback
		{
			OFFSET 0.004488 0.137956 0.026820
			CHANNELS 3 Zrotation Yrotation Xrotation
			JOINT chest
			{
				OFFSET -0.002265 0.056032 0.002855
				CHANNELS 3 Zrotation Yrotation Xrotation
				JOINT lowerneck
				{
					OFFSET -0.013390 0.211636 -0.033468
					CHANNELS 3 Zrotation Yrotation Xrotation
					JOINT upperneck
					{
						OFFSET 0.010113 0.088937 0.050410
						CHANNELS 3 Zrotation Yrotation Xrotation
						End Site
						{
							OFFSET 0.000000 0.000000 0.000000
						}
					}
				}
				JOINT lclavicle
				{
					OFFSET 0.071702 0.114000 -0.018898
					CHANNELS 3 Zrotation Yrotation Xrotation
					JOINT lshoulder
					{
						OFFSET 0.122921 0.045205 -0.019046
						CHANNELS 3 Zrotation Yrotation Xrotation
						JOINT lelbow
						{
							OFFSET 0.255332 -0.015649 -0.022946
							CHANNELS 3 Zrotation Yrotation Xrotation
							JOINT lwrist
							{
								OFFSET 0.265709 0.012698 -0.007375
								CHANNELS 3 Zrotation Yrotation Xrotation
								End Site
								{
									OFFSET 0.000000 0.000000 0.000000
								}
							}
						}
					}
				}
				JOINT rclavicle
				{
					OFFSET -0.082954 0.112472 -0.023707
					CHANNELS 3 Zrotation Yrotation Xrotation
					JOINT rshoulder
					{
						OFFSET -0.113228 0.046853 -0.008472
						CHANNELS 3 Zrotation Yrotation Xrotation
						JOINT relbow
						{
							OFFSET -0.260127 -0.014369 -0.031269
							CHANNELS 3 Zrotation Yrotation Xrotation
							JOINT rwrist
							{
								OFFSET -0.269108 0.006794 -0.006027
								CHANNELS 3 Zrotation Yrotation Xrotation
								End Site
								{
									OFFSET 0.000000 0.000000 0.000000
								}
							}
						}
					}
				}
			}
		}
	}
}
MOTION
Frames: 7
Frame Time: 0.033333
-0.057297 0.279723 0.775504 -2.256515 -1.331285 69.551619 20.870620 8.471340 -11.463708 -7.501377 8.980589 65.040710 -2.192908 18.743610 -45.254178 0.000000 -0.000000 0.000000 -24.396207 -10.056850 -25.645887 0.210827 -1.992592 76.493805 4.681685 4.764758 -30.971395 0.000000 -0.000000 0.000000 -2.196130 4.406603 32.750943 2.033351 -3.064009 5.063545 1.255778 -1.517751 -3.770435 6.928617 7.900067 -12.164756 -2.668393 -10.015575 20.459488 -25.407374 -29.610509 -9.271893 -17.863706 -25.615176 -8.729041 81.478424 -69.149959 -58.524578 -34.200322 -1.060643 17.289631 26.270796 29.579925 -7.068075 25.663315 26.889186 1.474278 -83.705608 64.006029 -72.437611 5.603048 5.233228 0.038245 
-0.057203 0.280566 0.775624 -2.230458 -1.320372 69.494314 20.890259 8.479098 -11.465036 -7.485018 9.033183 65.010334 -2.208704 18.616248 -45.091652 0.000000 -0.000000 0.000000 -24.392981 -9.992038 -25.604286 0.176183 -2.028259 76.421527 4.599766 4.743964 -30.912403 0.000000 -0.000000 0.000000 -2.202252 4.420464 32.862267 2.053802 -3.068471 5.023750 1.299726 -1.591113 -3.800978 6.976781 7.734114 -11.998192 -2.568748 -9.991340 20.382193 -25.415621 -29.631101 -9.254585 -17.864834 -25.505685 -8.686847 81.646217 -69.070456 -58.851447 -34.362018 -0.857927 17.414677 26.195488 29.608348 -7.137561 25.694328 26.829819 1.577307 -83.609295 63.930788 -72.533065 5.788465 5.262347 0.404524 
-0.056930 0.281434 0.775772 -2.318929 -1.350077 69.436547 20.838774 8.486102 -11.406324 -7.464707 9.041984 64.910110 -2.181912 18.716275 -45.228031 0.000000 -0.000000 0.000000 -24.340151 -10.022580 -25.689713 0.197901 -1.890863 76.390323 4.467255 4.775283 -30.934832 0.000000 -0.000000 0.000000 -2.169172 4.385041 33.048626 1.977399 -3.026613 4.865041 1.243050 -1.564312 -3.790049 6.952321 7.608293 -11.978959 -2.428851 -10.112462 20.482706 -25.389361 -29.609087 -9.317910 -17.829968 -25.498218 -8.665019 81.227273 -69.165530 -58.528746 -34.163034 -0.890509 17.540600 26.122288 29.640337 -7.237531 25.828109 26.739313 1.642390 -83.512920 63.922452 -72.435428 5.670612 5.272464 0.444195 
-0.056962 0.281940 0.775949 -2.283502 -1.326213 69.386265 20.818410 8.473362 -11.411807 -7.416096 8.981350 64.904275 -2.249101 18.647995 -45.234578 0.000000 -0.000000 0.000000 -24.332742 -10.056516 -25.655093 0.112090 -1.924200 76.364116 4.267108 4.839650 -31.061211 0.000000 -0.000000 0.000000 -2.154821 4.443013 33.108851 1.984446 -3.066233 4.808739 1.282353 -1.586457 -3.802702 7.008172 7.575738 -11.765924 -2.409331 -10.249942 20.433595 -25.435677 -29.658150 -9.258699 -17.838288 -25.443196 -8.687880 81.202349 -69.186981 -58.447572 -34.429861 -0.839683 17.527943 26.200159 29.589135 -7.138658 25.706385 26.705523 1.487522 -83.465353 64.050092 -72.297738 5.573395 5.329487 0.298877 
-0.056951 0.282379 0.775956 -2.362921 -1.321632 69.339119 20.866674 8.497370 -11.332683 -7.363947 9.052070 64.854093 -2.160171 18.670047 -45.138067 0.000000 -0.000000 0.000000 -24.302653 -10.057269 -25.662693 0.092252 -1.896771 76.350050 4.227856 4.927897 -31.024056 0.000000 -0.000000 0.000000 -2.154858 4.424404 33.094745 1.948285 -3.012199 4.895360 1.271695 -1.557542 -3.830427 7.043282 7.608541 -11.692557 -2.381863 -10.210405 20.501286 -25.452520 -29.652463 -9.268462 -17.859995 -25.327817 -8.676492 81.461565 -69.236553 -58.743791 -34.596655 -0.745373 17.334063 26.170796 29.582531 -7.031567 25.715828 26.669232 1.449391 -83.653431 64.023305 -72.436452 5.554980 5.165949 0.321967 
-0.056858 0.283667 0.776388 -2.339828 -1.268441 69.449513 20.831175 8.462134 -11.566825 -7.293176 9.073743 64.873265 -2.039411 18.661171 -45.034263 0.000000 -0.000000 0.000000 -24.204959 -10.173357 -25.854618 0.101772 -1.895807 76.310035 4.179987 4.880406 -30.901849 0.000000 -0.000000 0.000000 -2.095905 4.408004 33.117088 1.970430 -3.070323 4.733996 1.227986 -1.601375 -3.747110 7.134653 7.599647 -11.633683 -2.379889 -10.208552 20.684237 -25.518233 -29.499805 -9.457367 -17.972107 -25.377821 -8.521760 81.584626 -69.325462 -58.791449 -34.752094 -0.676074 17.339687 26.287464 29.430691 -6.890549 25.734827 26.838830 1.551800 -83.827391 64.037968 -72.506140 5.240952 5.158292 0.261263 
-0.056725 0.284218 0.776757 -2.300861 -1.194422 69.324218 20.838045 8.321605 -11.499151 -7.317139 9.000514 64.847336 -2.103049 18.705412 -44.979322 0.000000 -0.000000 0.000000 -24.240442 -10.043525 -25.657579 0.079998 -2.071815 76.219814 4.200048 4.888330 -30.782049 0.000000 -0.000000 0.000000 -2.013924 4.387999 33.301149 1.999202 -3.079666 4.730140 1.223603 -1.609059 -3.747729 7.141750 7.598158 -11.691529 -2.473961 -10.272147 20.874976 -25.467827 -29.421171 -9.540784 -18.227413 -25.486961 -8.357789 81.306467 -69.281809 -58.491539 -34.464186 -0.619256 17.526592 26.159238 29.398550 -7.093920 25.920353 26.752966 1.736625 -83.920213 64.026255 -72.541542 5.206577 5.216610 0.028935 
